<?xml version="1.0" standalone="no"?>
<!DOCTYPE svg PUBLIC "-//W3C//DTD SVG 20010904//EN"
 "http://www.w3.org/TR/2001/REC-SVG-20010904/DTD/svg10.dtd">
<svg version="1.0" xmlns="http://www.w3.org/2000/svg"
 width="544.000000pt" height="544.000000pt" viewBox="0 0 544.000000 544.000000"
 preserveAspectRatio="xMidYMid meet">
<metadata>
Created by potrace 1.14, written by Peter Selinger 2001-2017
</metadata>
<g transform="translate(0.000000,544.000000) scale(0.100000,-0.100000)"
fill="#000000" stroke="none">
<path d="M3582 4947 c-8 -10 -11 -36 -8 -72 2 -32 0 -72 -6 -89 -5 -17 -10
-35 -12 -41 -8 -35 -150 -266 -168 -273 -4 -2 -8 -8 -8 -13 0 -5 -41 -65 -90
-133 -97 -133 -115 -177 -83 -194 16 -9 37 1 123 59 90 61 243 174 276 204 6
6 33 28 59 50 27 22 53 45 59 50 18 17 128 98 176 130 75 49 102 81 96 116
-11 70 -79 123 -249 193 -59 24 -150 31 -165 13z"/>
<path d="M2420 4630 c-24 -24 -24 -30 -5 -76 12 -29 63 -103 85 -124 3 -3 18
-23 35 -45 45 -61 155 -169 202 -200 23 -15 58 -29 78 -32 31 -4 40 0 69 31
31 32 33 40 31 89 -3 70 -37 141 -91 192 -46 43 -212 132 -308 165 -72 25 -71
25 -96 0z"/>
<path d="M1000 4405 c-20 -24 -19 -87 2 -125 11 -20 45 -58 76 -85 31 -28 125
-118 209 -202 155 -153 178 -170 258 -177 31 -3 42 1 71 30 20 21 35 46 35 62
4 75 1 118 -16 207 -10 52 -47 95 -120 143 -159 104 -476 194 -515 147z"/>
<path d="M4110 4118 c-72 -17 -99 -23 -165 -34 -16 -3 -59 -11 -95 -19 -36 -8
-76 -17 -90 -19 -14 -2 -56 -11 -95 -19 -38 -9 -86 -18 -105 -21 -51 -8 -86
-15 -170 -31 -41 -8 -91 -17 -110 -20 -19 -3 -42 -8 -50 -10 -8 -3 -31 -7 -50
-9 -19 -3 -62 -10 -95 -16 -33 -6 -71 -13 -85 -15 -14 -2 -36 -6 -50 -8 -14
-2 -39 -7 -55 -11 -17 -4 -46 -8 -65 -11 -19 -2 -73 -11 -120 -19 -47 -8 -101
-17 -120 -20 -19 -3 -46 -8 -60 -11 -14 -2 -68 -11 -120 -20 -52 -8 -107 -17
-122 -20 -16 -3 -40 -7 -55 -9 -87 -13 -121 -18 -143 -22 -14 -3 -43 -7 -64
-10 -22 -3 -44 -7 -48 -10 -37 -23 82 -131 166 -151 57 -13 151 0 331 47 108
27 353 84 407 94 24 4 27 2 23 -22 -2 -15 -23 -83 -48 -152 -71 -199 -81 -225
-90 -231 -5 -3 -8 -10 -8 -15 0 -5 -5 -23 -11 -40 -10 -29 -15 -32 -87 -43
l-75 -11 -41 29 c-70 50 -163 72 -203 47 -18 -11 -18 -64 -1 -98 75 -140 92
-246 92 -578 0 -244 -11 -453 -29 -550 -26 -137 -23 -345 6 -445 12 -41 67
-132 94 -154 8 -7 27 -11 42 -9 33 4 60 44 78 115 13 49 22 56 101 68 17 2 41
6 55 9 14 3 57 8 95 11 39 3 86 8 105 10 108 13 498 31 504 24 24 -28 140
-194 211 -301 89 -135 108 -156 148 -164 47 -9 124 81 172 201 27 68 29 76 42
150 8 51 8 237 -1 340 -8 91 -12 139 -21 280 -3 55 -8 125 -10 155 -4 53 -13
181 -21 320 -2 36 -6 119 -8 185 l-4 121 49 104 c27 58 49 110 49 117 0 54
-270 237 -381 259 -46 8 -106 6 -127 -5 -34 -18 -303 -113 -358 -126 -10 -3
-75 -19 -142 -36 -68 -17 -126 -28 -128 -26 -6 6 62 82 169 190 43 43 82 90
88 104 12 33 -16 98 -65 145 -20 19 -36 37 -36 40 0 3 42 11 93 18 50 7 101
14 112 16 11 2 47 6 80 9 33 4 71 8 85 10 14 1 59 6 100 9 41 4 95 9 120 11
45 4 163 12 315 20 44 3 151 7 239 9 256 8 346 25 352 68 6 44 -48 94 -171
155 -132 66 -210 78 -325 51z m-477 -899 c31 -13 54 -51 61 -101 3 -18 7 -44
10 -58 17 -77 25 -261 26 -587 1 -537 -6 -654 -43 -701 -19 -24 -75 -5 -120
41 -57 57 -96 83 -146 97 -44 12 -132 8 -191 -9 -19 -5 -48 -12 -65 -14 -16
-3 -50 -10 -75 -16 -25 -5 -58 -12 -75 -15 -48 -9 -75 -15 -93 -20 -9 -3 -34
-7 -54 -10 -21 -3 -59 -11 -85 -17 -27 -6 -62 -12 -80 -14 -17 -1 -36 -5 -41
-9 -23 -14 -27 26 -23 214 1 30 0 77 0 103 -2 58 10 74 41 57 28 -15 199 -8
345 14 55 8 131 17 168 21 37 3 77 8 89 10 11 3 45 7 76 11 58 7 85 11 90 14
1 2 6 3 12 4 18 2 41 46 35 66 -6 19 -61 61 -118 90 -30 15 -110 19 -172 9
-22 -4 -60 -10 -85 -13 -51 -7 -80 -12 -160 -27 -30 -6 -82 -12 -115 -15 -103
-7 -161 -13 -177 -19 -31 -12 -33 10 -23 240 4 98 4 97 16 89 32 -19 382 -18
479 1 14 3 45 8 70 11 25 3 63 10 85 16 22 6 53 12 69 15 57 9 121 38 124 57
10 47 -25 86 -93 102 -25 7 -151 7 -190 0 -38 -6 -118 -19 -125 -21 -3 -1 -30
-5 -60 -10 -30 -5 -57 -9 -60 -10 -35 -8 -102 -18 -210 -31 -30 -3 -63 -8 -72
-10 -10 -1 -21 2 -24 8 -7 10 -6 104 1 173 2 17 3 49 4 71 l1 41 58 12 c150
30 261 50 302 56 24 4 48 9 53 12 4 3 20 7 35 9 15 3 110 22 212 43 187 38
258 43 313 20z"/>
<path d="M1168 3161 c-31 -16 -71 -40 -90 -54 -81 -62 -399 -197 -465 -197
-70 -1 -68 -46 5 -82 80 -39 276 -28 387 22 120 54 143 54 180 5 40 -52 33
-100 -33 -204 -30 -47 -68 -108 -85 -134 -31 -51 -44 -113 -33 -169 3 -19 38
-88 77 -153 105 -177 172 -328 186 -423 8 -49 7 -143 -1 -175 l-6 -26 -138 -1
c-128 0 -201 -4 -262 -15 -14 -2 -42 -7 -64 -10 -21 -4 -47 -8 -58 -10 -11 -3
-45 -7 -76 -11 -30 -3 -63 -8 -71 -9 -9 -2 -57 -4 -108 -4 -83 -1 -93 -3 -103
-22 -7 -11 -9 -31 -6 -44 9 -36 160 -171 231 -207 58 -30 197 -3 275 52 26 19
160 73 160 65 0 -3 11 0 25 5 29 11 120 22 190 22 78 1 161 -11 265 -37 159
-40 648 -211 880 -308 14 -5 30 -11 35 -13 6 -1 28 -10 50 -20 22 -10 42 -18
45 -19 16 -5 254 -106 305 -130 117 -54 173 -79 405 -178 135 -57 267 -112
295 -121 27 -10 55 -22 62 -28 7 -6 13 -8 13 -4 0 3 11 1 24 -4 37 -14 104
-23 176 -24 62 -1 239 33 277 53 10 5 59 24 108 41 236 85 534 218 653 293 23
15 66 38 96 51 63 28 74 42 52 64 -14 14 -36 16 -144 13 -224 -7 -783 -5 -917
2 -190 11 -263 16 -330 22 -33 4 -80 8 -105 11 -103 10 -127 13 -175 19 -88
11 -120 15 -145 20 -14 3 -43 7 -65 10 -22 3 -52 7 -67 10 -16 3 -38 7 -50 9
-13 2 -50 9 -83 15 -33 6 -73 14 -90 16 -16 3 -37 8 -45 10 -8 2 -28 7 -45 10
-75 13 -165 35 -335 82 -69 19 -129 35 -135 36 -5 2 -16 6 -22 10 -7 5 -13 6
-13 2 0 -3 -13 1 -30 10 -16 9 -30 13 -30 10 0 -4 -66 17 -150 50 -36 14 -71
27 -80 30 -3 1 -14 5 -25 9 -121 46 -225 79 -315 101 -101 24 -112 26 -165 30
-27 2 -54 4 -59 4 -5 1 11 19 36 41 78 68 112 187 87 301 -15 68 -82 196 -145
279 -83 109 -95 134 -96 199 -1 66 20 122 74 203 40 60 148 172 241 251 56 48
79 90 69 130 -12 49 -128 132 -302 216 -82 39 -127 40 -202 2z"/>
</g>
</svg>
